<svg xmlns="http://www.w3.org/2000/svg" width="742" height="570" fill="none" viewBox="0 0 742 570"><path fill="#AFD3FF" d="M741.641 54.2383H395.216V629.626H741.641V54.2383Z"/><path fill="#E3F0FF" d="M715.645 82.8865H421.232V450.625H715.645V82.8865Z"/><path fill="#6FAFFF" d="M715.646 474.256C693.206 474.613 670.767 474.844 648.328 474.95C625.916 475.168 603.503 475.128 581.011 475.207L581.962 474.256C581.962 483.752 581.962 493.248 581.962 502.745L581.922 531.214C581.724 550.206 581.546 569.199 581.11 588.191C580.655 569.199 580.477 550.206 580.279 531.214V502.745C580.279 493.248 580.279 483.752 580.279 474.256V473.264H581.229C603.642 473.264 626.054 473.264 648.546 473.522C671.038 473.78 693.233 473.899 715.646 474.256Z"/><path fill="#6FAFFF" d="M581.169 604.448C603.608 604.091 626.047 603.853 648.486 603.734C670.899 603.516 693.312 603.576 715.804 603.496L714.853 604.448C714.853 595.13 714.853 585.832 714.853 576.514L714.972 548.561C715.15 529.945 715.328 511.309 715.764 492.693C716.219 511.309 716.398 529.945 716.576 548.561L716.695 576.514C716.695 585.832 716.794 595.13 716.695 604.448V605.419H715.744C693.332 605.32 670.919 605.419 648.427 605.162C625.935 604.904 603.582 604.825 581.169 604.448Z"/><path fill="#6FAFFF" d="M593.841 553.794H602.395V520.924H593.841V553.794Z"/><path fill="#6FAFFF" d="M421.232 474.256C443.671 473.899 466.11 473.667 488.549 473.562C510.962 473.344 533.374 473.383 555.866 473.304H556.816V474.256C556.816 483.752 556.816 493.248 556.816 502.744V531.213C556.618 550.206 556.44 569.199 555.985 588.191C555.549 569.199 555.371 550.206 555.173 531.213V502.744C555.173 493.248 555.173 483.752 555.173 474.256L556.123 475.207C533.711 475.207 511.298 475.207 488.806 474.949C466.315 474.692 443.645 474.612 421.232 474.256Z"/><path fill="#8DBDF9" d="M555.708 604.448C533.295 604.825 510.882 605.023 488.39 605.162C465.899 605.3 443.565 605.32 421.073 605.419H420.123V604.448C420.123 595.13 420.123 585.832 420.123 576.514L420.242 548.561C420.42 529.945 420.598 511.309 421.054 492.693C421.489 511.309 421.667 529.945 421.846 548.561L421.964 576.514C421.964 585.832 422.063 595.13 421.964 604.448L421.014 603.496C443.427 603.496 465.839 603.496 488.331 603.734C510.823 603.972 533.295 604.111 555.708 604.448Z"/><path fill="#8DBDF9" d="M543.036 520.905H534.482V553.775H543.036V520.905Z"/><path fill="#D5E8FF" d="M715.645 74.0042H421.232V82.8857H715.645V74.0042Z"/><path fill="#D5E8FF" d="M715.645 199.537H421.232V208.419H715.645V199.537Z"/><path fill="#D5E8FF" d="M715.645 325.071H421.232V333.952H715.645V325.071Z"/><path fill="#8DBDF9" d="M476.373 199.518V99.5588H446.08V199.518H476.373Z"/><path fill="#CBE2FF" d="M476.373 171.188V160.204H446.08V171.188H476.373Z"/><path fill="#CBE2FF" d="M476.373 123.348V119.264H446.08V123.348H476.373Z"/><path fill="#8DBDF9" d="M672.582 99.5786V199.537H702.875V99.5786H672.582Z"/><path fill="#CBE2FF" d="M672.582 127.909V138.892H702.875V127.909H672.582Z"/><path fill="#CBE2FF" d="M702.895 193.571V189.487H672.602V193.571H702.895Z"/><path fill="#CBE2FF" d="M702.875 174.795V170.711H672.582V174.795H702.875Z"/><path fill="#8DBDF9" d="M618.035 199.518V99.5588H595.048V199.518H618.035Z"/><path fill="#CBE2FF" d="M618.055 171.188V160.204H595.068V171.188H618.055Z"/><path fill="#CBE2FF" d="M618.055 123.369V119.285H595.068V123.369H618.055Z"/><path fill="#CBE2FF" d="M497.558 199.517V82.9055H476.373V199.517H497.558Z"/><path fill="#F4F9FF" d="M493.222 138.714V93.8696H480.511V138.714H493.222Z"/><path fill="#A7CEFF" d="M702.895 89.8635V199.517H715.665V89.8635H702.895Z"/><path fill="#F4F9FF" d="M705.488 97.4568V139.625H713.15V97.4568H705.488Z"/><path fill="#CBE2FF" d="M618.055 92.8967V199.517H639.24V92.8967H618.055Z"/><path fill="#F4F9FF" d="M622.392 148.508V189.506H635.103V148.508H622.392Z"/><path fill="#A7CEFF" d="M533.493 199.537V110.958H497.537V199.537H533.493Z"/><path fill="#8DBDF9" d="M533.493 190.14V181.893H497.537V190.14H533.493Z"/><path fill="#8DBDF9" d="M533.493 176.461V173.269H497.537V176.461H533.493Z"/><path fill="#A7CEFF" d="M446.08 199.558V116.312H421.232V199.558H446.08Z"/><path fill="#8DBDF9" d="M446.08 190.695V182.943H421.232V190.695H446.08Z"/><path fill="#8DBDF9" d="M446.08 141.192V133.441H421.232V141.192H446.08Z"/><path fill="#8DBDF9" d="M446.061 149.538V146.524H421.213V149.538H446.061Z"/><path fill="#A7CEFF" d="M672.582 199.537V82.9055H639.22V199.537H672.582Z"/><path fill="#8DBDF9" d="M672.582 187.166V176.302H639.22V187.166H672.582Z"/><path fill="#8DBDF9" d="M672.582 117.817V106.953H639.22V117.817H672.582Z"/><path fill="#8DBDF9" d="M672.582 129.495V125.272H639.22V129.495H672.582Z"/><path fill="#A7CEFF" d="M594.988 195.636L563.538 100.412L551.751 104.315L583.202 199.539L594.988 195.636Z"/><path fill="#8DBDF9" d="M591.676 185.541L588.742 176.656L576.955 180.559L579.89 189.444L591.676 185.541Z"/><path fill="#8DBDF9" d="M572.963 128.921L570.028 120.036L558.242 123.939L561.176 132.824L572.963 128.921Z"/><path fill="#8DBDF9" d="M533.513 87.3464V199.537H551.768V87.3464H533.513Z"/><path fill="#F4F9FF" d="M533.513 99.2417V109.69H551.768V99.2417H533.513Z"/><path fill="#F4F9FF" d="M533.493 165.973V176.421H551.747V165.973H533.493Z"/><path fill="#F4F9FF" d="M533.513 154.733V158.797H551.768V154.733H533.513Z"/><path fill="#8DBDF9" d="M647.497 325.051V225.092H617.204V325.051H647.497Z"/><path fill="#CBE2FF" d="M647.496 296.72V285.737H617.204V296.72H647.496Z"/><path fill="#CBE2FF" d="M647.496 248.883V244.799H617.204V248.883H647.496Z"/><path fill="#8DBDF9" d="M433.982 225.092V325.051H464.275V225.092H433.982Z"/><path fill="#CBE2FF" d="M434.002 253.422V264.405H464.295V253.422H434.002Z"/><path fill="#CBE2FF" d="M464.295 319.104V315.02H434.003V319.104H464.295Z"/><path fill="#CBE2FF" d="M464.295 300.309V296.225H434.003V300.309H464.295Z"/><path fill="#8DBDF9" d="M541.809 325.031V225.072H518.822V325.031H541.809Z"/><path fill="#CBE2FF" d="M541.809 296.72V285.737H518.822V296.72H541.809Z"/><path fill="#CBE2FF" d="M541.809 248.883V244.799H518.822V248.883H541.809Z"/><path fill="#CBE2FF" d="M617.184 325.051V208.439H595.999V325.051H617.184Z"/><path fill="#F4F9FF" d="M613.046 264.227V219.382H600.335V264.227H613.046Z"/><path fill="#A7CEFF" d="M421.232 239.683V325.031H434.002V239.683H421.232Z"/><path fill="#F4F9FF" d="M423.707 245.571V278.401H431.369V245.571H423.707Z"/><path fill="#CBE2FF" d="M497.657 218.411V325.031H518.842V218.411H497.657Z"/><path fill="#F4F9FF" d="M501.795 274.021V315.02H514.506V274.021H501.795Z"/><path fill="#A7CEFF" d="M596.019 325.072V236.492H560.063V325.072H596.019Z"/><path fill="#8DBDF9" d="M596.019 315.654V307.407H560.063V315.654H596.019Z"/><path fill="#8DBDF9" d="M596.039 301.994V298.802H560.084V301.994H596.039Z"/><path fill="#A7CEFF" d="M715.645 325.051V218.411H690.797V325.051H715.645Z"/><path fill="#8DBDF9" d="M715.665 313.751V303.818H690.817V313.751H715.665Z"/><path fill="#8DBDF9" d="M715.645 250.33V240.397H690.797V250.33H715.645Z"/><path fill="#8DBDF9" d="M715.645 261.015V257.169H690.797V261.015H715.645Z"/><path fill="#A7CEFF" d="M497.657 325.071V208.439H464.296V325.071H497.657Z"/><path fill="#8DBDF9" d="M497.657 312.68V301.816H464.296V312.68H497.657Z"/><path fill="#8DBDF9" d="M497.657 243.331V232.467H464.296V243.331H497.657Z"/><path fill="#8DBDF9" d="M497.657 255.009V250.786H464.296V255.009H497.657Z"/><path fill="#CBE2FF" d="M659.3 325.068L690.75 229.844L678.964 225.941L647.514 321.165L659.3 325.068Z"/><path fill="#8DBDF9" d="M662.639 315L665.574 306.116L653.787 302.213L650.853 311.097L662.639 315Z"/><path fill="#8DBDF9" d="M681.332 258.36L684.267 249.475L672.48 245.572L669.546 254.457L681.332 258.36Z"/><path fill="#CBE2FF" d="M541.809 212.86V325.051H560.064V212.86H541.809Z"/><path fill="#F4F9FF" d="M541.809 224.775V235.223H560.064V224.775H541.809Z"/><path fill="#F4F9FF" d="M541.809 291.507V301.955H560.064V291.507H541.809Z"/><path fill="#F4F9FF" d="M541.809 280.245V284.31H560.064V280.245H541.809Z"/><path fill="#8DBDF9" d="M465.384 450.604V350.645H442.397V450.604H465.384Z"/><path fill="#CBE2FF" d="M465.384 422.293V411.31H442.397V422.293H465.384Z"/><path fill="#CBE2FF" d="M465.384 374.456V370.372H442.397V374.456H465.384Z"/><path fill="#CBE2FF" d="M442.397 450.624V334.012H421.212V450.624H442.397Z"/><path fill="#F4F9FF" d="M438.26 389.8V344.956H425.549V389.8H438.26Z"/><path fill="#A7CEFF" d="M465.384 362.045V450.624H501.339V362.045H465.384Z"/><path fill="#8DBDF9" d="M465.384 371.442V379.689H501.339V371.442H465.384Z"/><path fill="#8DBDF9" d="M465.384 385.121V388.313H501.339V385.121H465.384Z"/><path fill="#8DBDF9" d="M694.995 450.604V350.645H676.344V450.604H694.995Z"/><path fill="#CBE2FF" d="M694.995 422.274V411.291H676.344V422.274H694.995Z"/><path fill="#CBE2FF" d="M694.995 374.436V370.352H676.344V374.436H694.995Z"/><path fill="#8DBDF9" d="M501.358 341.942V450.624H525.474V341.942H501.358Z"/><path fill="#CBE2FF" d="M501.339 372.73V384.665H525.455V372.73H501.339Z"/><path fill="#CBE2FF" d="M525.454 444.121V439.68H501.339V444.121H525.454Z"/><path fill="#CBE2FF" d="M525.475 423.702V419.261H501.359V423.702H525.475Z"/><path fill="#8DBDF9" d="M582.337 450.584V337.838H559.351V450.584H582.337Z"/><path fill="#CBE2FF" d="M582.337 418.625V406.235H559.351V418.625H582.337Z"/><path fill="#CBE2FF" d="M582.337 364.682V360.082H559.351V364.682H582.337Z"/><path fill="#CBE2FF" d="M537.69 450.584V338.413H525.455V450.584H537.69Z"/><path fill="#F4F9FF" d="M535.295 392.119V348.98H527.949V392.119H535.295Z"/><path fill="#CBE2FF" d="M636.567 343.984V450.604H676.344V343.984H636.567Z"/><path fill="#F4F9FF" d="M644.349 399.574V440.573H668.207V399.574H644.349Z"/><path fill="#A7CEFF" d="M636.567 450.604V355.344H600.612V450.604H636.567Z"/><path fill="#8DBDF9" d="M636.567 440.513V431.631H600.612V440.513H636.567Z"/><path fill="#8DBDF9" d="M636.567 425.823V422.373H600.612V425.823H636.567Z"/><path fill="#A7CEFF" d="M715.665 450.605V343.965H695.015V450.605H715.665Z"/><path fill="#8DBDF9" d="M715.645 439.304V429.372H694.994V439.304H715.645Z"/><path fill="#8DBDF9" d="M715.665 375.883V365.95H695.015V375.883H715.665Z"/><path fill="#8DBDF9" d="M715.645 386.549V382.703H694.994V386.549H715.645Z"/><path fill="#A7CEFF" d="M559.371 450.604V349.615H537.691V450.604H559.371Z"/><path fill="#8DBDF9" d="M559.351 439.918V430.501H537.671V439.918H559.351Z"/><path fill="#8DBDF9" d="M559.351 379.868V370.451H537.671V379.868H559.351Z"/><path fill="#8DBDF9" d="M559.371 389.939V386.292H537.691V389.939H559.371Z"/><path fill="#CBE2FF" d="M582.337 343.27V450.604H600.592V343.27H582.337Z"/><path fill="#F4F9FF" d="M582.357 354.65V364.662H600.612V354.65H582.357Z"/><path fill="#F4F9FF" d="M582.337 418.487V428.498H600.592V418.487H582.337Z"/><path fill="#F4F9FF" d="M582.338 407.742V411.627H600.593V407.742H582.338Z"/><path fill="#E4F0FF" d="M98.483 383.545L113.568 386.747L98.483 391.16C97.541 391.433 96.691 391.958 96.024 392.68C95.358 393.401 94.901 394.29 94.702 395.252L90.934 413.35L86.763 395.6C86.531 394.611 86.026 393.707 85.306 392.991C84.586 392.275 83.679 391.775 82.69 391.549L67.605 388.111L83.107 383.74C84.072 383.469 84.944 382.935 85.624 382.198C86.304 381.461 86.766 380.548 86.958 379.563L90.42 362.162L94.326 379.452C94.555 380.461 95.068 381.383 95.805 382.109C96.542 382.835 97.472 383.333 98.483 383.545Z"/><path fill="#E4F0FF" d="M28.663 513.263L36.574 514.933L28.649 517.258C28.162 517.404 27.724 517.682 27.383 518.06C27.043 518.438 26.812 518.902 26.716 519.402L24.728 528.896L22.545 519.569C22.429 519.048 22.165 518.571 21.785 518.196C21.406 517.821 20.926 517.563 20.404 517.453L12.494 515.643L20.627 513.346C21.134 513.205 21.592 512.926 21.95 512.54C22.308 512.155 22.553 511.677 22.657 511.161L24.464 502.028L26.508 511.105C26.626 511.632 26.892 512.115 27.273 512.497C27.655 512.879 28.136 513.144 28.663 513.263Z"/><path fill="#E4F0FF" d="M140.206 368.343L144.794 369.317L140.206 370.709C139.918 370.788 139.657 370.946 139.453 371.165C139.25 371.384 139.111 371.655 139.052 371.948L137.898 377.517L136.633 372.101C136.559 371.8 136.403 371.526 136.182 371.31C135.961 371.093 135.684 370.943 135.381 370.876L130.793 369.832L135.52 368.44C135.812 368.355 136.074 368.192 136.28 367.969C136.486 367.746 136.627 367.471 136.688 367.173L137.745 361.869L138.927 367.131C139.007 367.432 139.17 367.704 139.395 367.918C139.621 368.132 139.902 368.279 140.206 368.343Z"/><path fill="#E4F0FF" d="M162.882 461.462L167.484 462.423L162.882 463.815C162.594 463.899 162.335 464.06 162.132 464.281C161.928 464.502 161.789 464.774 161.728 465.068L160.588 470.566L159.323 465.165C159.247 464.864 159.091 464.589 158.87 464.37C158.649 464.152 158.373 463.998 158.071 463.926L153.483 462.882L158.21 461.49C158.503 461.408 158.767 461.246 158.974 461.022C159.18 460.798 159.32 460.522 159.378 460.223L160.435 454.919L161.617 460.181C161.682 460.494 161.836 460.782 162.06 461.009C162.285 461.236 162.57 461.393 162.882 461.462Z"/><path fill="#E4F0FF" d="M50.879 492.13L54.661 492.924L50.879 494.037C50.647 494.109 50.437 494.241 50.271 494.419C50.105 494.597 49.989 494.816 49.934 495.054L48.961 499.592L47.918 495.137C47.857 494.891 47.731 494.667 47.552 494.488C47.373 494.309 47.149 494.182 46.903 494.121L43.149 493.3L47.028 492.2C47.27 492.13 47.487 491.996 47.659 491.812C47.83 491.628 47.949 491.402 48.002 491.156L48.864 486.798L49.837 491.128C49.902 491.375 50.034 491.599 50.218 491.775C50.402 491.952 50.631 492.075 50.879 492.13Z"/><path fill="#E0E0E0" d="M302.231 535.133L306.012 535.927L302.231 537.026C301.996 537.099 301.785 537.233 301.619 537.414C301.453 537.595 301.338 537.817 301.285 538.057L300.34 542.581L299.297 538.14C299.236 537.894 299.109 537.67 298.931 537.491C298.752 537.312 298.528 537.185 298.282 537.124L294.5 536.261L298.379 535.175C298.618 535.103 298.833 534.968 299.002 534.784C299.171 534.601 299.287 534.375 299.339 534.131L300.215 529.773L301.188 534.103C301.249 534.355 301.378 534.585 301.563 534.767C301.747 534.949 301.978 535.076 302.231 535.133Z"/><path fill="#E4F0FF" d="M201.685 272.593L205.466 273.4L201.685 274.5C201.45 274.573 201.239 274.706 201.073 274.887C200.907 275.068 200.792 275.29 200.739 275.53L199.794 280.054L198.751 275.614C198.69 275.368 198.564 275.143 198.385 274.964C198.206 274.785 197.982 274.658 197.736 274.597L193.955 273.734L197.834 272.634C198.075 272.565 198.293 272.431 198.464 272.247C198.635 272.063 198.754 271.836 198.807 271.59L199.669 267.233L200.642 271.562C200.703 271.814 200.833 272.044 201.017 272.226C201.201 272.408 201.432 272.535 201.685 272.593Z"/><path fill="#E0E0E0" d="M551.858 396.505L555.64 397.313L551.858 398.412C551.624 398.485 551.413 398.619 551.247 398.8C551.081 398.981 550.965 399.203 550.913 399.443L549.967 403.967L548.924 399.526C548.862 399.279 548.734 399.053 548.552 398.874C548.371 398.694 548.144 398.569 547.896 398.51L544.128 397.647L548.007 396.547C548.248 396.485 548.467 396.355 548.637 396.172C548.807 395.99 548.921 395.762 548.966 395.517L549.842 391.146L550.815 395.475C550.876 395.727 551.006 395.957 551.19 396.139C551.374 396.321 551.606 396.448 551.858 396.505Z"/><path fill="#E0E0E0" d="M489.211 287.697L492.993 288.49L489.211 289.604C488.979 289.675 488.769 289.807 488.603 289.985C488.437 290.164 488.321 290.383 488.266 290.62L487.321 295.158L486.278 290.704C486.216 290.456 486.087 290.23 485.906 290.051C485.724 289.872 485.497 289.746 485.249 289.687L481.481 288.838L485.36 287.738C485.599 287.666 485.814 287.532 485.983 287.348C486.152 287.164 486.268 286.938 486.32 286.694L487.196 282.337L488.169 286.666C488.23 286.918 488.359 287.148 488.544 287.33C488.728 287.512 488.959 287.639 489.211 287.697Z"/><path fill="#E4F0FF" d="M358.997 78.5997L362.765 79.4071L358.997 80.5069C358.763 80.5798 358.552 80.7135 358.386 80.8944C358.219 81.0753 358.104 81.2971 358.051 81.5371L357.106 86.0615L356.063 81.6206C356.001 81.373 355.873 81.1473 355.691 80.9681C355.51 80.7889 355.283 80.663 355.035 80.6043L351.253 79.7412L355.146 78.6414C355.384 78.5695 355.599 78.4346 355.768 78.2509C355.937 78.0672 356.053 77.8415 356.105 77.5973L356.967 73.24L357.954 77.5695C358.015 77.8214 358.145 78.0512 358.329 78.2332C358.513 78.4152 358.745 78.5421 358.997 78.5997Z"/><path fill="#E0E0E0" d="M201.782 477.346L209.428 478.974L201.782 481.202C201.305 481.346 200.875 481.615 200.537 481.983C200.199 482.35 199.967 482.802 199.863 483.29L197.945 492.45L195.831 483.457C195.712 482.957 195.456 482.5 195.093 482.136C194.73 481.772 194.273 481.516 193.774 481.397L186.113 479.657L193.982 477.429C194.469 477.291 194.909 477.022 195.255 476.651C195.6 476.281 195.838 475.823 195.943 475.327L197.694 466.501L199.669 475.271C199.79 475.781 200.053 476.246 200.427 476.613C200.801 476.98 201.27 477.234 201.782 477.346Z"/><path fill="#E4F0FF" d="M217.951 310.597L225.598 312.212L217.951 314.453C217.475 314.596 217.047 314.864 216.709 315.228C216.372 315.593 216.138 316.042 216.032 316.528L214.128 325.702L212.015 316.695C211.892 316.195 211.633 315.74 211.267 315.378C210.902 315.017 210.443 314.764 209.943 314.648L202.296 312.908L210.165 310.681C210.652 310.539 211.09 310.267 211.433 309.894C211.776 309.521 212.011 309.061 212.112 308.565L213.864 299.739L215.838 308.509C215.957 309.021 216.219 309.49 216.593 309.859C216.967 310.229 217.438 310.485 217.951 310.597Z"/><path fill="#E4F0FF" d="M324.684 32.2841L332.331 33.899L324.684 36.1403C324.204 36.282 323.771 36.5508 323.431 36.9184C323.091 37.2859 322.856 37.7385 322.752 38.2285L320.847 47.3887L318.678 38.3816C318.555 37.8822 318.297 37.4266 317.931 37.0654C317.565 36.7042 317.107 36.4514 316.607 36.3352L308.96 34.595L316.829 32.3676C317.313 32.2269 317.75 31.957 318.093 31.5867C318.436 31.2164 318.672 30.7597 318.775 30.2655L320.527 21.4395L322.515 30.1959C322.639 30.7156 322.909 31.1889 323.293 31.5591C323.678 31.9294 324.161 32.181 324.684 32.2841Z"/><path fill="#E4F0FF" d="M543.586 221.056L556.724 223.84L543.586 227.682C542.762 227.922 542.019 228.381 541.436 229.012C540.853 229.642 540.452 230.419 540.277 231.26L536.954 247.005L533.367 231.58C533.161 230.719 532.719 229.933 532.09 229.311C531.461 228.688 530.67 228.254 529.808 228.058L516.67 225.065L530.184 221.251C531.022 221.012 531.778 220.546 532.369 219.905C532.96 219.264 533.363 218.473 533.534 217.617L536.551 202.443L539.957 217.506C540.163 218.382 540.613 219.181 541.256 219.81C541.898 220.438 542.707 220.871 543.586 221.056Z"/><path fill="#8DC0FF" d="M146.087 0.431641H23.088V128.827H146.087V0.431641Z"/><path fill="#E6F1FF" d="M137.745 0.431641H14.746V128.827H137.745V0.431641Z"/><path fill="#E0E0E0" d="M137.787 128.855H14.718V0.390137H137.787V128.855ZM14.788 128.786H137.717V0.487585H14.788V128.786Z"/><path fill="#FAFAFA" d="M121.229 17.6946H31.291V111.566H121.229V17.6946Z"/><path fill="#B8D9FF" d="M31.29 112.192C30.646 113.13 29.9 113.993 29.066 114.767C27.676 116.284 25.618 118.345 23.352 120.572C21.086 122.8 19.014 124.749 17.471 126.21C16.698 127.035 15.824 127.76 14.871 128.368C15.515 127.43 16.256 126.562 17.082 125.779C18.472 124.261 20.543 122.215 22.81 119.974C25.076 117.732 27.161 115.797 28.705 114.336C29.475 113.517 30.343 112.797 31.29 112.192Z"/><path fill="#B8D9FF" d="M121.256 111.955C122.204 112.592 123.072 113.34 123.842 114.183C125.358 115.575 127.415 117.635 129.64 119.904C131.864 122.174 133.811 124.248 135.201 125.779C136.024 126.559 136.752 127.432 137.37 128.382C136.424 127.759 135.56 127.02 134.798 126.183C133.282 124.791 131.225 122.716 129 120.447C126.776 118.178 124.829 116.076 123.356 114.545C122.558 113.766 121.853 112.897 121.256 111.955Z"/><path fill="#B8D9FF" d="M120.978 17.9448C121.611 16.9982 122.353 16.1292 123.189 15.3554C124.579 13.838 126.65 11.7916 128.917 9.55027C131.183 7.30895 133.254 5.37389 134.784 3.98177C135.555 3.1504 136.428 2.42064 137.383 1.81006C136.75 2.74005 136.003 3.58661 135.159 4.3298C133.769 5.84722 131.697 7.90756 129.431 10.1489C127.165 12.3902 125.079 14.3253 123.55 15.787C122.78 16.6047 121.917 17.3289 120.978 17.9448Z"/><path fill="#B8D9FF" d="M31.04 18.168C30.095 17.5338 29.227 16.791 28.454 15.9546C26.939 14.5624 24.895 12.4882 22.67 10.219C20.446 7.94984 18.5 5.87557 17.109 4.34424C16.293 3.55876 15.566 2.68575 14.94 1.74097C15.888 2.36676 16.752 3.11054 17.512 3.95444C19.028 5.34657 21.086 7.42083 23.324 9.69C25.562 11.9592 27.495 14.0473 28.885 15.5787C29.703 16.354 30.426 17.2231 31.04 18.168Z"/><path fill="#B8D9FF" d="M120.978 111.565C120.968 111.412 120.968 111.259 120.978 111.106C120.978 110.786 120.978 110.354 120.978 109.797C120.978 108.614 120.978 106.929 120.978 104.73C120.978 100.275 120.978 93.8156 120.881 85.6021C120.881 69.1611 120.784 45.7316 120.714 17.6943L121.062 18.0423H31.374L31.763 17.6525C31.763 52.1076 31.763 84.3353 31.763 111.523L31.429 111.175L96.37 111.356L114.611 111.44H119.435H120.672H121.117H120.714H119.504H114.75L96.579 111.537L31.29 111.858H30.887V111.523C30.887 84.3353 30.887 52.1076 30.887 17.6525V17.2488H31.29H120.978H121.326V17.5968C121.242 45.7316 121.187 69.2307 121.145 85.7274C121.145 93.8992 121.145 100.345 121.048 104.772C121.048 106.943 121.048 108.614 121.048 109.769C121.048 110.312 121.048 110.744 121.048 111.05C121.048 111.356 120.978 111.565 120.978 111.565Z"/><path fill="#4B3CFB" d="M91.253 49.6018H61.251V79.6439H91.253V49.6018Z"/><path fill="#8DC0FF" d="M145.976 160.791H22.977V289.187H145.976V160.791Z"/><path fill="#E6F1FF" d="M137.634 160.791H14.635V289.187H137.634V160.791Z"/><path fill="#E0E0E0" d="M137.69 289.228H14.607V160.763H137.69V289.228ZM14.676 289.145H137.606V160.833H14.676V289.145Z"/><path fill="#FAFAFA" d="M121.117 178.053H31.179V271.924H121.117V178.053Z"/><path fill="#B8D9FF" d="M31.179 272.551C30.538 273.495 29.791 274.364 28.955 275.14C27.564 276.657 25.507 278.704 23.241 280.945C20.974 283.186 18.903 285.121 17.36 286.514C16.579 287.335 15.706 288.063 14.76 288.685C15.404 287.764 16.15 286.918 16.984 286.166C18.375 284.648 20.446 282.588 22.712 280.346C24.978 278.105 27.064 276.17 28.607 274.708C29.377 273.891 30.24 273.166 31.179 272.551Z"/><path fill="#B8D9FF" d="M121.104 272.328C122.053 272.957 122.921 273.7 123.689 274.541C125.205 275.933 127.263 278.008 129.487 280.263C131.711 282.518 133.658 284.62 135.048 286.151C135.878 286.924 136.607 287.798 137.217 288.755C136.277 288.119 135.414 287.376 134.645 286.541C133.13 285.149 131.072 283.075 128.847 280.806C126.623 278.537 124.677 276.448 123.203 274.917C122.409 274.135 121.705 273.267 121.104 272.328Z"/><path fill="#B8D9FF" d="M120.867 178.304C121.503 177.364 122.245 176.5 123.078 175.729C124.468 174.211 126.54 172.151 128.806 169.923C131.072 167.696 133.143 165.747 134.673 164.285C135.45 163.464 136.323 162.74 137.273 162.127C136.641 163.067 135.898 163.927 135.062 164.689C133.672 166.206 131.6 168.267 129.334 170.508C127.068 172.749 124.982 174.684 123.453 176.146C122.684 176.97 121.815 177.695 120.867 178.304Z"/><path fill="#B8D9FF" d="M30.887 178.541C29.944 177.898 29.077 177.151 28.301 176.313C26.786 174.921 24.742 172.861 22.518 170.592C20.293 168.323 18.375 166.248 16.984 164.759C16.164 163.977 15.437 163.103 14.815 162.156C15.754 162.792 16.617 163.535 17.387 164.369C18.903 165.761 20.961 167.835 23.199 170.105C25.437 172.374 27.37 174.462 28.76 176.007C29.569 176.762 30.284 177.613 30.887 178.541Z"/><path fill="#B8D9FF" d="M120.867 271.952C120.855 271.803 120.855 271.654 120.867 271.506C120.867 271.186 120.867 270.754 120.867 270.184C120.867 269.014 120.867 267.316 120.867 265.116C120.867 260.675 120.867 254.202 120.77 245.989C120.77 229.548 120.672 206.132 120.603 178.081L120.95 178.429H31.263L31.652 178.025C31.652 212.48 31.652 244.722 31.652 271.896L31.318 271.562L96.259 271.729L114.499 271.826H119.324H121.006C120.872 271.839 120.737 271.839 120.603 271.826H119.393H114.638L96.467 271.91L31.318 272.091H30.887V271.952C30.887 244.777 30.887 212.536 30.887 178.081V177.691H31.29H120.978H121.256V178.039C121.173 206.174 121.117 229.673 121.075 246.17C121.075 254.355 121.006 260.801 120.978 265.228C120.978 267.399 120.978 269.07 120.978 270.225C120.978 270.768 120.978 271.186 120.978 271.492C120.95 271.647 120.913 271.801 120.867 271.952Z"/><path fill="#4B3CFB" d="M91.157 209.974H61.141V240.016H91.157V209.974Z"/><path fill="#FFBE9D" d="M222.665 433.201L202.533 468.867L230.659 497.211L260.119 465.206L222.665 433.201Z"/><path fill="#87BDFF" d="M48.961 545.253L87.069 544.349C87.069 544.349 107.02 532.237 108.591 531.332C110.162 530.427 119.24 528.548 119.24 528.548L179.649 547.495V553.063H38.2V548.845L44.707 548.163L48.961 545.253Z"/><path fill="#133578" d="M204.743 463.814C203.603 463.633 171.543 513.666 171.543 513.666L133.24 520.696L90.781 544.362C90.781 544.362 89.822 549.165 94.618 549.485C99.415 549.805 125.205 538.348 125.205 538.348C125.205 538.348 116.376 542.65 118.058 548.19C120.033 554.692 136.688 549.582 136.688 549.582L172.266 547.272C173.9 547.165 175.493 546.716 176.942 545.953C178.391 545.191 179.663 544.132 180.677 542.845L185.21 537.109L235.01 497.475C235.01 497.475 230.603 467.642 204.743 463.814Z"/><path fill="white" d="M147.95 531.221C147.714 531.563 147.428 531.868 147.102 532.126C146.265 532.877 145.378 533.57 144.447 534.2C143.06 535.147 141.573 535.937 140.012 536.553C138.082 537.278 136.051 537.696 133.992 537.792C131.983 537.837 129.977 537.995 127.986 538.265C126.409 538.648 124.893 539.248 123.481 540.047C121.02 541.439 119.755 542.623 119.672 542.525C119.588 542.428 119.908 542.149 120.506 541.606C121.35 540.86 122.257 540.19 123.217 539.602C124.652 538.71 126.213 538.039 127.847 537.611C129.862 537.295 131.897 537.114 133.936 537.068C137.575 536.878 141.102 535.74 144.169 533.769C146.546 532.279 147.867 531.124 147.95 531.221Z"/><path fill="white" d="M176.632 525.318C176.437 525.318 175.965 522.534 174.394 519.36C173.339 517.498 172.387 515.578 171.543 513.611C173.006 515.217 174.19 517.057 175.047 519.054C176.139 520.957 176.688 523.124 176.632 525.318Z"/><path fill="white" d="M186.28 528.325C185.431 527.935 184.651 527.408 183.972 526.765C180.511 523.871 177.761 520.217 175.936 516.088C175.501 515.256 175.205 514.357 175.061 513.429C176.518 516.196 178.138 518.873 179.913 521.447C181.893 523.868 184.02 526.165 186.28 528.325Z"/><path fill="white" d="M198.014 518.01C197.888 517.604 197.823 517.182 197.82 516.757C197.82 515.949 197.681 514.78 197.667 513.332C197.615 509.554 197.871 505.778 198.431 502.042C198.999 498.3 199.859 494.609 201.003 491.002C201.448 489.61 201.851 488.524 202.171 487.773C202.292 487.371 202.475 486.99 202.713 486.645C202.392 488.169 201.988 489.675 201.504 491.155C199.482 498.381 198.366 505.831 198.181 513.332C198.208 514.893 198.153 516.454 198.014 518.01Z"/><g opacity="0.3"><path fill="#133578" d="M201.393 491.253C198.667 498.904 197.564 507.04 198.153 515.142C200.787 507.469 201.888 499.352 201.393 491.253Z" opacity="0.3"/></g><path fill="#133578" d="M363.334 571.174L367.338 539.239L519.061 454.751C519.061 454.751 541.305 490.765 549.814 571.202L443.206 570.701L363.334 571.174Z"/><path fill="#0075FF" d="M282.989 258.879L263.636 280.429L260.438 323.335L297.671 399.776L340.366 489.763C343.884 497.489 347.429 515.295 344.927 525.415C344.927 525.415 337.975 549.917 373.261 551.546C392.502 552.437 414.636 547.369 430.777 542.539L431.194 542.413C458.797 534.238 482.098 515.549 496.093 490.362L520.854 456.129C515.376 434.788 506.951 440.607 503.628 432.547C487.612 393.832 474.432 365.864 474.432 365.864L421.379 243.468C413.44 225.496 403.43 218.911 391.766 216.03C383.117 213.951 374.096 213.979 365.461 216.113L339.393 222.392L282.989 258.879Z"/><path fill="#0075FF" d="M262.371 480.534C273.243 468.005 290.872 381.623 290.872 381.623L263.636 280.43C263.636 280.43 251.04 294.783 247.133 308.509L224.305 429.443C224.305 429.443 215.963 431.183 216.047 444.005C216.06 452.636 262.371 480.534 262.371 480.534Z"/><path fill="#133578" d="M311.101 427.632C310.904 427.36 310.732 427.071 310.586 426.769L309.196 424.235L304.344 414.839C300.284 406.806 294.723 395.85 288.592 383.739L273.076 352.541L268.433 343.047C267.918 341.975 267.515 341.112 267.209 340.457C267.045 340.162 266.915 339.849 266.82 339.525C267.018 339.795 267.19 340.084 267.334 340.388L268.725 342.921L273.577 352.318C277.636 360.337 283.197 371.307 289.329 383.432L304.9 414.63L309.544 424.124C310.044 425.196 310.447 426.059 310.767 426.713C310.913 427.006 311.025 427.314 311.101 427.632Z"/><path fill="#133578" d="M503.1 440.956C503.028 441.354 502.921 441.745 502.78 442.125L501.724 445.438L500.945 447.833C500.639 448.71 500.264 449.629 499.874 450.617C499.082 452.622 498.276 454.933 497.094 457.369C496.538 458.608 495.954 459.902 495.356 461.253C494.758 462.603 493.966 463.94 493.284 465.36C491.894 468.227 490.142 471.137 488.349 474.241C480.327 487.566 470.307 499.577 458.638 509.852C455.858 512.163 453.341 514.418 450.783 516.297C449.504 517.244 448.322 518.218 447.113 519.082C445.903 519.945 444.722 520.71 443.609 521.49C441.413 523.063 439.286 524.274 437.464 525.416C436.547 525.973 435.699 526.502 434.906 526.961L432.682 528.103L429.609 529.731C429.254 529.929 428.887 530.106 428.511 530.26C428.833 530.012 429.178 529.793 429.54 529.606L432.543 527.852L434.711 526.613C435.504 526.14 436.338 525.583 437.242 525.012C439.035 523.843 441.135 522.604 443.303 521.003L446.765 518.567C447.961 517.717 449.143 516.743 450.394 515.782C452.938 513.889 455.469 511.606 458.18 509.323C469.749 499.044 479.72 487.093 487.765 473.865C489.558 470.789 491.324 467.893 492.728 465.053C493.451 463.661 494.202 462.269 494.828 460.974L496.621 457.132C497.803 454.71 498.651 452.427 499.471 450.45C499.874 449.448 500.264 448.529 500.597 447.666L501.432 445.299L502.613 442.028C502.75 441.659 502.913 441.301 503.1 440.956Z"/><g opacity="0.3"><path fill="#133578" d="M405.07 436.222C416.415 436.013 432.431 434.12 443.331 430.946C454.231 427.772 464.658 422.301 472.458 414.087C480.257 405.874 485.304 394.598 484.97 383.307C478.561 397.243 466.049 409.939 451.826 417.15C447.085 419.558 438.535 423.763 437.561 422.51L405.07 436.222Z" opacity="0.3"/></g><path fill="#FFBE9D" d="M355.715 418.417C357.689 416.231 406.196 379.911 406.196 379.911L445.973 422.078L379.1 450.366L355.715 418.417Z"/><path fill="#0075FF" d="M436.352 427.104C445.305 423.485 453.953 419.656 459.82 415.132C487.626 393.651 489.461 374.273 485.846 360.101C481.884 344.509 418.64 234.81 411.66 227.752C404.681 220.694 382.631 209.39 360.595 234.573C347.804 249.204 373.233 290.439 373.233 290.439L418.417 369.623C405.696 367.465 399.885 380.538 399.885 380.538L436.352 427.104Z"/><path fill="#133578" d="M400.844 383.92C400.796 383.766 400.764 383.608 400.747 383.447C400.423 381.171 400.692 378.851 401.525 376.709C402.742 374.093 404.925 372.052 407.615 371.015C411.05 369.654 414.746 369.079 418.431 369.331L418.153 369.776C413.537 361.744 408.032 352.11 402.095 341.767L381.561 305.572L375.402 294.56C374.721 293.293 374.178 292.291 373.761 291.539C373.565 291.192 373.388 290.834 373.233 290.467C373.482 290.78 373.701 291.115 373.886 291.469C374.331 292.193 374.915 293.182 375.652 294.421L382.006 305.321C387.344 314.606 394.643 327.358 402.735 341.433L418.668 369.512L418.946 369.985H418.39C414.793 369.719 411.181 370.247 407.809 371.53C405.205 372.487 403.069 374.412 401.845 376.904C401.131 378.535 400.775 380.302 400.802 382.083C400.802 383.322 400.886 383.92 400.844 383.92Z"/><path fill="#133578" d="M483.872 354.769C484.04 355.057 484.179 355.36 484.289 355.674C484.525 356.273 484.956 357.15 485.332 358.333C486.466 361.663 487.131 365.135 487.306 368.649C487.428 371.08 487.321 373.518 486.986 375.929C486.567 378.69 485.897 381.407 484.984 384.045C483.935 386.934 482.642 389.729 481.119 392.398C479.471 395.252 477.612 397.979 475.558 400.556C468.138 409.489 458.981 416.817 448.642 422.092C445.539 423.713 442.324 425.108 439.021 426.269C437.853 426.714 436.922 426.965 436.31 427.16C435.994 427.274 435.669 427.358 435.337 427.41C435.632 427.256 435.939 427.125 436.255 427.02C436.866 426.784 437.784 426.491 438.924 426.004C442.167 424.733 445.333 423.274 448.406 421.633C458.59 416.256 467.625 408.935 475.002 400.083C477.049 397.539 478.907 394.85 480.563 392.036C482.068 389.393 483.356 386.632 484.414 383.781C485.329 381.184 486.009 378.509 486.444 375.79C486.804 373.423 486.939 371.027 486.847 368.635C486.721 365.154 486.142 361.705 485.123 358.375C484.79 357.191 484.4 356.3 484.22 355.674C484.067 355.388 483.951 355.084 483.872 354.769Z"/><g opacity="0.3"><path fill="#133578" d="M418.07 369.623C423.099 370.191 427.954 371.808 432.321 374.369C436.689 376.929 440.473 380.377 443.429 384.49C444.171 385.42 444.693 386.505 444.959 387.664C445.075 388.248 445.023 388.852 444.808 389.407C444.594 389.961 444.227 390.443 443.749 390.797C443.258 391.048 442.71 391.167 442.16 391.143C441.609 391.118 441.074 390.951 440.607 390.658C439.689 390.052 438.872 389.305 438.188 388.444C431.806 381.205 426.384 375.066 418.418 369.623" opacity="0.3"/></g><path fill="#133578" d="M442.692 396.992C442.581 396.992 441.649 395.182 439.911 392.287C437.72 388.513 435.193 384.944 432.362 381.623C429.491 378.344 426.275 375.384 422.769 372.797C420.086 370.806 418.292 369.734 418.362 369.623C418.824 369.788 419.267 370.003 419.683 370.263C420.517 370.709 421.671 371.433 423.075 372.379C426.707 374.877 430.009 377.824 432.904 381.15C435.782 384.492 438.282 388.143 440.356 392.036C441.149 393.526 441.747 394.751 442.108 395.614C442.36 396.047 442.556 396.51 442.692 396.992Z"/><path fill="#133578" d="M392.363 216.072C388.635 216.212 384.941 216.848 381.38 217.965C377.539 219.231 373.938 221.137 370.73 223.603C366.766 226.572 363.519 230.395 361.23 234.791C358.942 239.186 357.67 244.041 357.509 248.995C357.31 253.036 357.804 257.08 358.969 260.954C360.085 264.522 361.679 267.922 363.709 271.061C363.709 271.061 363.515 270.866 363.209 270.462C362.75 269.868 362.323 269.25 361.93 268.611C360.457 266.271 359.298 263.749 358.482 261.107C357.235 257.187 356.68 253.079 356.841 248.968C356.973 243.906 358.256 238.942 360.593 234.452C362.93 229.963 366.259 226.067 370.327 223.06C373.613 220.589 377.301 218.705 381.227 217.492C383.862 216.678 386.591 216.21 389.346 216.1C390.32 216.016 391.07 216.1 391.585 216.1C391.842 216.06 392.104 216.051 392.363 216.072Z"/><path fill="#05C168" d="M276.58 454.32L274.856 450.923L270.963 449.155C270.963 449.155 254.279 451.842 250.22 458.788C246.16 465.735 230.088 490.529 230.756 495.471C231.423 500.413 235.649 503.058 238.486 502C241.322 500.942 246.563 494.051 246.563 494.051L248.802 493.758L275.217 499.842L278.359 494.413L253.751 485.336L267.139 484.014L278.86 471.484L276.58 454.32Z"/><path fill="white" d="M301.633 496.236C300.852 498.528 300.644 500.976 301.027 503.366C301.41 505.757 302.372 508.017 303.829 509.949C308.167 515.67 314.632 524.65 320.721 532.64C325.476 538.863 357.481 555.346 374.776 563.963C378.018 565.586 381.742 565.96 385.241 565.012C388.74 564.065 391.77 561.864 393.753 558.826C399.906 549.45 404.796 539.302 408.296 528.645C409.408 525.217 409.233 521.501 407.805 518.192C406.377 514.884 403.793 512.21 400.538 510.673L326.088 475.508C324.206 474.618 322.159 474.136 320.078 474.094C317.998 474.051 315.932 474.449 314.016 475.261C312.1 476.073 310.377 477.281 308.959 478.806C307.541 480.332 306.461 482.139 305.79 484.111L301.633 496.236Z"/><path fill="#133578" d="M301.633 496.237C301.633 496.237 301.633 495.972 301.841 495.485L302.55 493.299C303.19 491.364 304.135 488.552 305.331 484.947C305.925 482.884 306.928 480.962 308.278 479.295C309.909 477.311 312.027 475.785 314.423 474.868C317.179 473.803 320.187 473.576 323.071 474.213C324.622 474.617 326.123 475.191 327.548 475.926L332.066 478.042L375.457 498.464L401.08 510.562C403.37 511.729 405.325 513.461 406.76 515.595C408.196 517.728 409.064 520.193 409.283 522.757C409.473 525.365 409.054 527.982 408.06 530.4C407.212 532.85 406.308 535.286 405.279 537.694C403.297 542.464 401.037 547.112 398.508 551.616C397.257 553.834 395.95 555.996 394.588 558.103C393.923 559.183 393.159 560.198 392.308 561.138C390.152 563.396 387.354 564.934 384.293 565.542C381.233 566.15 378.06 565.798 375.207 564.534C370.925 562.474 366.865 560.358 362.82 558.298C354.784 554.121 347.207 550.126 340.227 546.158C336.724 544.182 333.373 542.219 330.231 540.214C327.139 538.379 324.225 536.259 321.528 533.88C320.4 532.642 319.355 531.33 318.4 529.954C317.44 528.645 316.495 527.365 315.619 526.14C313.798 523.662 312.06 521.323 310.447 519.179C308.834 517.035 307.347 515.003 305.957 513.095C304.632 511.43 303.429 509.671 302.356 507.833C301.012 505.179 300.503 502.179 300.896 499.23C301.002 498.206 301.254 497.202 301.647 496.251C301.647 496.251 301.647 496.501 301.452 497.002C301.26 497.739 301.121 498.488 301.035 499.244C300.709 502.159 301.255 505.105 302.606 507.708C303.69 509.519 304.903 511.25 306.235 512.887L310.781 518.928L315.981 525.889L318.831 529.69C319.773 531.05 320.809 532.343 321.931 533.56C324.611 535.897 327.501 537.98 330.565 539.782C333.707 541.759 337.057 543.708 340.561 545.671C347.512 549.611 355.131 553.62 363.153 557.741C367.171 559.773 371.3 561.917 375.527 563.95C377.688 564.905 380.051 565.315 382.407 565.142C384.763 564.97 387.041 564.221 389.04 562.961C390.058 562.318 390.991 561.551 391.821 560.678C392.641 559.773 393.376 558.794 394.018 557.755C395.408 555.653 396.659 553.578 397.897 551.295C400.416 546.82 402.667 542.2 404.64 537.458C405.641 535.063 406.53 532.641 407.42 530.205C408.395 527.884 408.805 525.365 408.616 522.854C408.411 520.414 407.586 518.067 406.221 516.035C404.856 514.003 402.996 512.354 400.816 511.244L375.235 499.105L331.899 478.543L327.395 476.399C326.005 475.677 324.541 475.108 323.029 474.701C320.25 474.082 317.351 474.29 314.688 475.299C312.347 476.173 310.272 477.641 308.668 479.559C307.325 481.2 306.323 483.094 305.72 485.128C304.469 488.719 303.482 491.504 302.815 493.48C302.481 494.399 302.231 495.123 302.036 495.638C301.841 496.153 301.633 496.237 301.633 496.237Z"/><path fill="#133578" d="M272.311 466.737C272.311 466.737 274.021 454.459 278.206 453.22C282.391 451.981 308.445 444.157 308.445 444.157L379.851 395.098L407.726 448.653L342.382 475.104C342.382 475.104 339.824 478.459 336.974 477.164C336.974 477.164 332.65 482.426 330.356 482.733C328.062 483.039 328.882 484.278 328.882 484.278C328.882 484.278 309.738 516.297 305.136 516.923C300.534 517.55 294.737 516.687 294.904 512.956C294.904 512.956 286.284 516.088 283.503 512.775C283.503 512.775 276.816 517.87 272.464 512.413C271.326 510.44 270.291 508.41 269.364 506.329C269.364 506.329 263.58 513.499 258.353 511.007C253.376 508.626 254.488 500.914 257.213 496.194C259.938 491.475 272.311 466.737 272.311 466.737Z"/><path fill="#133578" d="M245.451 495.722C245.34 495.722 244.937 495.012 244.061 493.94C241.809 491.167 238.579 489.367 235.038 488.914C234.287 488.897 233.539 488.823 232.8 488.691C233.527 488.42 234.309 488.324 235.08 488.413C236.945 488.495 238.765 489.011 240.396 489.92C242.027 490.828 243.425 492.104 244.478 493.647C244.962 494.252 245.295 494.963 245.451 495.722Z"/><path fill="#133578" d="M267.834 475.118C266.742 476.138 265.57 477.069 264.331 477.902C262.134 479.559 259.076 481.8 255.892 484.515C253.161 486.821 250.635 489.359 248.343 492.102C246.605 494.218 245.687 495.638 245.562 495.582C245.684 495.194 245.867 494.828 246.104 494.497C246.66 493.555 247.273 492.649 247.939 491.782C250.136 488.914 252.64 486.295 255.405 483.972C258.156 481.651 261.034 479.485 264.025 477.485C265.225 476.588 266.499 475.796 267.834 475.118Z"/><path fill="#0075FF" d="M329.55 531.388L350.126 492.172L387.261 509.156L363.042 551.964L329.55 531.388Z"/><path fill="white" d="M304.984 497.267C304.75 498.181 304.39 499.057 303.913 499.871C302.891 501.903 301.744 503.869 300.479 505.759C299.205 507.647 297.812 509.451 296.308 511.161C295.74 511.918 295.06 512.585 294.292 513.138C294.125 512.998 296.92 509.741 299.853 505.356C302.787 500.971 304.775 497.17 304.984 497.267Z"/><path fill="white" d="M291.345 497.809C290.725 500.637 289.67 503.352 288.217 505.856C286.948 508.456 285.288 510.846 283.295 512.941C283.114 512.802 285.353 509.67 287.577 505.508C289.802 501.345 291.136 497.739 291.345 497.809Z"/><path fill="white" d="M276.107 495.123C275.42 497.225 274.486 499.239 273.327 501.123C272.369 503.134 271 504.922 269.309 506.371C269.17 506.232 270.977 503.949 272.701 500.802C274.425 497.656 275.899 495.011 276.107 495.123Z"/><path fill="white" d="M327.687 474.784C327.687 474.979 320.082 473.114 310.809 470.608C301.536 468.102 294.125 465.902 294.125 465.721C294.125 465.54 301.73 467.392 311.004 469.898C320.277 472.404 327.743 474.589 327.687 474.784Z"/><path fill="white" d="M324.517 468.241C323.595 468.167 322.69 467.951 321.834 467.6C319.716 466.93 317.645 466.121 315.633 465.178C313.617 464.245 311.662 463.184 309.78 462.004C308.965 461.57 308.22 461.016 307.569 460.361C307.681 460.18 311.268 462.366 315.911 464.537C320.555 466.709 324.573 467.962 324.517 468.241Z"/><g opacity="0.3"><path fill="#133578" d="M336.96 473.113C336.641 472.5 336.432 471.874 336.126 471.248C332.843 464.57 328.174 458.67 322.432 453.943C321.903 453.512 321.194 453.066 320.597 453.401C320.375 453.547 320.209 453.764 320.126 454.017C320.043 454.269 320.047 454.543 320.138 454.793C320.308 455.286 320.588 455.734 320.958 456.101C326.144 462.199 330.315 468.032 335.501 474.129C335.89 474.644 337.308 473.809 336.96 473.113Z" opacity="0.3"/></g><path fill="#133578" d="M213.947 525.541C214.622 524.434 215.394 523.39 216.255 522.422C217.743 520.557 219.842 518.009 222.206 515.225C224.569 512.441 226.724 509.949 228.309 508.167C229.115 507.153 230.018 506.22 231.006 505.383C230.338 506.493 229.565 507.537 228.698 508.501C227.211 510.366 225.111 512.914 222.762 515.698C220.412 518.482 218.243 520.974 216.644 522.742C215.831 523.754 214.928 524.691 213.947 525.541Z"/><path fill="#133578" d="M219.619 545.365C219.439 545.365 222.497 537.012 226.446 526.794C230.394 516.576 233.745 508.404 233.926 508.487C234.106 508.571 231.062 516.84 227.113 527.058C223.165 537.277 219.814 545.448 219.619 545.365Z"/><path fill="#133578" d="M237.415 534.395C237.09 530.031 237.006 525.653 237.165 521.281C237.09 516.904 237.253 512.526 237.652 508.167C237.978 512.53 238.061 516.908 237.902 521.281C237.977 525.658 237.815 530.035 237.415 534.395Z"/><path fill="#211F54" d="M192.759 173.737C192.759 166.651 195.011 164.257 193.357 162.934C187.434 158.187 182.151 145.714 181.664 140.173C180.538 127.143 191.536 115.685 191.536 115.685C193.579 108.725 196.402 99.495 204.66 93.0913C213.613 86.1306 227.641 77.8614 238.861 79.3092C250.081 80.7571 258.186 81.4531 265.36 90.2096L249.691 229.311C240.988 229.046 233.244 223.547 227.336 217.13C221.427 210.712 216.755 203.208 210.652 197.041C206.064 192.433 205.091 194.327 197.194 183.872C192.272 177.37 192.689 180.238 192.759 173.737Z"/><path fill="#FFBE9D" d="M303.844 131.263C294.028 103.087 269.462 85.3231 241.614 95.931L239.098 97.0726C226.882 102.564 217.179 112.46 211.921 124.791C206.663 137.122 206.235 150.983 210.722 163.616C219.356 187.978 229.213 214.763 235.024 227.306C247.05 253.269 274.954 245.612 274.954 245.612L286.799 268.165C299.108 270.608 311.884 268.526 322.783 262.299C333.682 256.073 341.974 246.12 346.137 234.266L303.844 131.263Z"/><path fill="#211F54" d="M274.378 180.282C274.842 181.221 275.653 181.941 276.64 182.29C277.626 182.64 278.709 182.59 279.659 182.153C280.133 181.958 280.563 181.67 280.924 181.306C281.285 180.942 281.57 180.509 281.762 180.034C281.954 179.558 282.049 179.049 282.041 178.536C282.033 178.023 281.923 177.516 281.717 177.046C281.255 176.106 280.444 175.384 279.457 175.034C278.47 174.685 277.386 174.735 276.436 175.176C275.962 175.371 275.532 175.659 275.171 176.023C274.81 176.387 274.525 176.819 274.333 177.295C274.141 177.771 274.047 178.28 274.054 178.793C274.062 179.306 274.172 179.812 274.378 180.282Z"/><path fill="#211F54" d="M237.121 196.892C237.586 197.832 238.399 198.554 239.388 198.902C240.376 199.251 241.461 199.199 242.412 198.759C242.885 198.562 243.314 198.273 243.674 197.909C244.035 197.545 244.319 197.113 244.511 196.637C244.702 196.162 244.797 195.653 244.79 195.141C244.783 194.628 244.675 194.122 244.47 193.652C244.008 192.711 243.197 191.989 242.21 191.64C241.223 191.29 240.139 191.341 239.189 191.781C238.713 191.975 238.282 192.263 237.919 192.626C237.557 192.99 237.271 193.423 237.078 193.9C236.885 194.376 236.789 194.886 236.797 195.4C236.804 195.914 236.914 196.421 237.121 196.892Z"/><path fill="#211F54" d="M224.818 188.236C225.495 188.479 227.194 185.094 231.024 183.157C234.854 181.219 238.679 181.718 238.858 181.032C238.961 180.72 238.106 180.157 236.4 179.828C234.145 179.516 231.85 179.91 229.827 180.954C227.824 181.968 226.192 183.589 225.164 185.587C224.499 187.083 224.496 188.137 224.818 188.236Z"/><path fill="#211F54" d="M265.004 170.817C265.708 170.987 267.062 167.478 270.678 165.115C274.295 162.752 278.151 162.885 278.261 162.182C278.325 161.863 277.398 161.356 275.678 161.239C273.393 161.164 271.141 161.799 269.232 163.059C267.334 164.265 265.873 166.05 265.063 168.151C264.534 169.706 264.67 170.747 265.004 170.817Z"/><path fill="#211F54" d="M264.004 205.684C263.905 205.461 261.308 206.256 257.173 207.724C256.141 208.124 255.064 208.422 254.602 207.817C254.14 207.212 253.88 205.947 253.779 204.552C253.501 201.697 253.218 198.748 252.895 195.575C251.535 182.863 250.008 172.575 249.501 172.631C248.994 172.688 249.677 183.062 251.046 195.794C251.395 198.919 251.742 201.9 252.069 204.757C252.262 206.063 252.27 207.658 253.516 208.882C253.836 209.155 254.214 209.352 254.621 209.458C255.029 209.563 255.455 209.575 255.867 209.493C256.487 209.371 257.087 209.165 257.65 208.879C261.674 207.134 264.102 205.906 264.004 205.684Z"/><path fill="#211F54" d="M276.697 202.603C276.061 202.887 278.164 207.071 276.085 211.86C274.007 216.648 269.338 218.439 269.607 219.045C269.729 219.318 271.013 219.351 272.962 218.434C275.431 217.224 277.396 215.182 278.511 212.667C279.578 210.249 279.662 207.51 278.744 205.032C277.965 203.224 276.972 202.432 276.697 202.603Z"/><path fill="#211F54" d="M254.388 157.109C255.382 157.877 258.702 155.065 263.297 152.835C267.891 150.605 272.092 149.556 272.093 148.308C272.07 147.713 270.873 147.169 268.864 147.108C266.255 147.13 263.685 147.746 261.349 148.909C259.013 150.072 256.972 151.752 255.38 153.822C254.219 155.453 253.934 156.743 254.388 157.109Z"/><path fill="#211F54" d="M217.827 170.987C218.945 171.518 221.148 169.265 224.313 167.6C227.478 165.934 230.502 165.203 230.666 163.968C230.707 163.381 229.847 162.723 228.245 162.493C226.152 162.269 224.043 162.706 222.211 163.742C220.354 164.732 218.846 166.27 217.894 168.148C217.248 169.659 217.333 170.747 217.827 170.987Z"/><path fill="#211F54" d="M265.36 90.2098C264.47 89.8618 263.553 89.5138 262.58 89.1936C254.822 86.4094 246.105 84.878 239.431 89.3746C235.594 91.95 233.147 96.1821 229.463 98.9942C224.486 102.795 217.868 103.602 212.39 106.637C209.113 108.488 206.325 111.096 204.257 114.244C202.19 117.392 200.903 120.988 200.503 124.735C199.933 130.554 201.476 136.846 198.751 141.997C197.486 144.391 193.19 146.062 191.703 148.303C191.703 148.303 189.047 167.236 203.548 166.401L205.369 164.856L219.592 146.02C224.333 144.419 229.213 143.236 231.284 138.879C232.674 135.997 232.285 132.517 232.48 129.287L240.085 120.238C242.49 119.639 245.145 119.417 247.537 118.846C250.369 118.204 253.042 116.997 255.397 115.297C257.753 113.597 259.741 111.438 261.244 108.951C262.747 106.463 263.734 103.698 264.145 100.82C264.556 97.9417 264.383 95.0102 263.636 92.2006L265.36 90.2098Z"/><path fill="#211F54" d="M241.531 111.927C244.728 109.31 251.179 103.755 251.777 99.746C253.084 91.0452 258.562 83.1379 266.403 80.2562C270.497 78.871 274.928 78.8493 279.035 80.1942C283.142 81.5391 286.705 84.1785 289.19 87.718C298.477 83.8201 310.044 85.7691 318.191 92.6183C322.297 96.1603 325.48 100.65 327.464 105.701C329.448 110.751 330.173 116.208 329.578 121.602C329.23 124.387 328.535 127.282 329.578 129.955C330.968 133.213 334.402 134.744 337.238 136.707C344.982 142.039 348.931 152.229 348.764 161.765C348.597 171.301 347.29 175.13 342.911 178.888C334.319 186.267 352.81 203.501 336.307 210.587L306.36 152.285L306.29 152.396C305.697 153.504 304.802 154.42 303.71 155.039C302.617 155.657 301.371 155.953 300.117 155.89C283.434 154.818 284.504 137.292 287.827 133.992C282.847 132.566 278.068 130.513 273.605 127.881C269.197 125.097 261.718 119.612 260.188 114.461C256.796 116.034 240.126 113.069 241.531 111.927Z"/><path fill="#FFBE9D" d="M306.402 152.131C306.763 151.742 321.945 138.781 329.383 156.893C336.821 175.004 317.121 178.735 316.871 178.234C316.62 177.733 306.402 152.131 306.402 152.131Z"/><path fill="#EB996E" d="M319.581 169.101C319.581 169.004 319.984 169.185 320.624 169.213C321.505 169.223 322.356 168.894 323.001 168.294C324.614 166.804 324.976 163.101 323.724 159.802C323.127 158.216 322.176 156.788 320.944 155.626C320.536 155.14 320.017 154.76 319.431 154.518C318.846 154.276 318.21 154.178 317.579 154.233C317.176 154.285 316.804 154.476 316.527 154.773C316.251 155.071 316.087 155.456 316.064 155.862C316.064 156.461 316.3 156.781 316.217 156.851C316.133 156.92 315.702 156.711 315.536 155.904C315.467 155.425 315.555 154.937 315.786 154.512C316.131 153.93 316.69 153.505 317.343 153.328C318.139 153.162 318.965 153.203 319.741 153.447C320.518 153.691 321.219 154.129 321.778 154.721C323.194 155.969 324.282 157.547 324.948 159.315C326.338 163.018 325.865 167.194 323.558 169.06C323.13 169.398 322.632 169.638 322.101 169.76C321.57 169.883 321.018 169.886 320.485 169.77C319.79 169.519 319.526 169.157 319.581 169.101Z"/><path fill="#EB996E" d="M274.953 245.612C274.953 245.612 297.323 231.691 306.707 214.985C306.707 214.985 309.641 240.364 279.416 254.062L274.953 245.612Z"/><path fill="white" d="M317.621 329.669L325.254 331.298L317.607 333.539C317.132 333.682 316.703 333.95 316.366 334.314C316.028 334.679 315.794 335.128 315.689 335.614L313.784 344.774L311.726 335.781C311.606 335.279 311.348 334.82 310.982 334.456C310.617 334.092 310.157 333.838 309.655 333.72L302.008 331.98L309.877 329.767C310.347 329.609 310.766 329.328 311.091 328.954C311.416 328.579 311.636 328.124 311.726 327.637L313.478 318.811L315.466 327.581C315.589 328.099 315.857 328.571 316.239 328.941C316.62 329.311 317.1 329.564 317.621 329.669Z"/><path fill="white" d="M300.257 352.764L303.663 353.488L300.257 354.476C300.043 354.541 299.85 354.661 299.699 354.825C299.547 354.989 299.442 355.191 299.395 355.409L298.547 359.488L297.601 355.479C297.551 355.254 297.438 355.048 297.276 354.886C297.113 354.723 296.908 354.61 296.684 354.56L293.277 353.794L296.781 352.806C296.998 352.741 297.194 352.619 297.348 352.453C297.502 352.286 297.609 352.081 297.657 351.859L298.435 347.933L299.311 351.831C299.362 352.061 299.479 352.272 299.647 352.437C299.814 352.603 300.026 352.716 300.257 352.764Z"/><path fill="white" d="M402.345 240.656L405.752 241.38L402.345 242.369C402.132 242.433 401.939 242.553 401.788 242.717C401.636 242.881 401.531 243.083 401.483 243.301L400.635 247.38L399.69 243.371C399.64 243.146 399.527 242.941 399.365 242.778C399.202 242.615 398.997 242.502 398.772 242.452L395.366 241.687L398.87 240.698C399.088 240.636 399.286 240.515 399.44 240.348C399.595 240.181 399.701 239.975 399.746 239.751L400.524 235.826L401.4 239.724C401.451 239.954 401.568 240.164 401.735 240.33C401.903 240.495 402.115 240.608 402.345 240.656Z"/><path fill="#4A4566" d="M379.086 550.529H0.0360107V570.158H379.086V550.529Z"/><path fill="#6E7191" d="M379.123 550.529H269.461V570.158H379.123V550.529Z"/><path fill="#8883A5" d="M24.505 570.173C24.338 569.895 24.19 569.606 24.06 569.309C23.782 568.753 23.379 567.917 22.851 566.957C20.125 561.821 16.515 557.207 12.187 553.328C11.353 552.576 10.672 551.936 10.199 551.588C9.93402 551.398 9.69101 551.178 9.47601 550.933C9.75201 551.107 10.017 551.297 10.269 551.504C10.769 551.866 11.478 552.437 12.312 553.175C16.745 556.99 20.387 561.639 23.031 566.859C23.532 567.862 23.921 568.683 24.158 569.268C24.294 569.561 24.41 569.863 24.505 570.173Z"/><path fill="#8883A5" d="M53.215 570.521C51.346 570.537 49.481 570.345 47.654 569.95C45.725 569.538 43.836 568.956 42.009 568.21C39.746 567.259 37.58 566.089 35.545 564.715C31.864 562.185 28.655 559.028 26.063 555.388C25.002 553.888 24.072 552.3 23.282 550.641C23.282 550.641 23.366 550.752 23.491 550.961C23.616 551.17 23.852 551.56 24.061 551.908C24.74 553.063 25.478 554.183 26.271 555.263C28.894 558.841 32.099 561.952 35.753 564.465C37.768 565.832 39.91 567.002 42.148 567.959C43.983 568.721 45.881 569.317 47.821 569.741C48.564 569.919 49.316 570.058 50.073 570.159C50.643 570.265 51.219 570.335 51.797 570.367L52.882 570.465L53.215 570.521Z"/><path fill="#8883A5" d="M79.728 560.525C79.728 560.525 78.018 560.72 74.904 560.748C73.347 560.748 71.442 560.748 69.231 560.567C68.133 560.484 66.951 560.372 65.7 560.219L63.781 559.955C63.099 559.885 62.43 559.721 61.793 559.467C61.449 559.354 61.131 559.173 60.858 558.934C60.586 558.694 60.365 558.402 60.208 558.075C60.079 557.698 60.071 557.289 60.186 556.907C60.301 556.525 60.532 556.189 60.848 555.945C61.488 555.478 62.224 555.159 63.003 555.012C63.767 554.804 64.546 554.595 65.352 554.428C72.539 552.785 79.977 552.562 87.249 553.774C89.274 554.088 91.272 554.553 93.228 555.166C94.261 555.494 95.143 556.18 95.716 557.101C95.964 557.591 96.106 558.129 96.132 558.678C96.159 559.228 96.069 559.776 95.869 560.289C95.518 561.329 94.834 562.224 93.923 562.836C93.033 563.415 92.043 563.821 91.003 564.033C88.973 564.479 86.971 564.827 84.997 565.161C81.191 565.811 77.345 566.192 73.486 566.303C66.931 566.591 60.4 565.327 54.425 562.614C50.408 560.76 46.823 558.085 43.9 554.762C43.108 553.886 42.379 552.956 41.717 551.978C41.259 551.282 41.036 550.92 41.036 550.92C41.036 550.92 41.3 551.268 41.759 551.936C42.439 552.911 43.182 553.842 43.984 554.72C46.939 557.954 50.526 560.546 54.522 562.335C60.479 565.007 66.979 566.242 73.499 565.941C77.34 565.818 81.168 565.432 84.955 564.785C86.93 564.451 88.946 564.089 90.948 563.658C91.937 563.444 92.879 563.053 93.728 562.502C94.583 561.918 95.226 561.073 95.563 560.094C95.746 559.619 95.826 559.11 95.8 558.602C95.774 558.093 95.641 557.596 95.41 557.142C94.878 556.274 94.048 555.631 93.075 555.333C91.136 554.727 89.157 554.262 87.152 553.941C79.918 552.745 72.522 552.953 65.366 554.553C64.56 554.72 63.781 554.929 63.031 555.124C62.277 555.258 61.564 555.563 60.945 556.015C60.668 556.231 60.464 556.527 60.359 556.863C60.255 557.199 60.256 557.559 60.361 557.894C60.623 558.523 61.123 559.024 61.751 559.286C62.376 559.532 63.031 559.691 63.698 559.76L65.617 560.038C66.854 560.191 68.036 560.317 69.134 560.4C71.331 560.581 73.305 560.637 74.792 560.637C76.28 560.637 77.573 560.637 78.365 560.567L79.728 560.525Z"/><path fill="#8883A5" d="M146.837 551.866H146.309C145.961 551.866 145.461 551.754 144.807 551.768C142.967 551.718 141.128 551.924 139.343 552.381C136.696 553.071 134.143 554.081 131.739 555.388C128.796 557 125.947 558.775 123.202 560.706C120.255 562.724 117.419 564.617 114.707 566.135C112.32 567.515 109.782 568.618 107.144 569.42C105.367 569.962 103.524 570.257 101.667 570.297C100.989 570.321 100.311 570.298 99.637 570.228H100.165C100.665 570.253 101.166 570.253 101.667 570.228C103.508 570.144 105.33 569.821 107.089 569.267C109.695 568.44 112.204 567.329 114.568 565.954C117.266 564.423 120.13 562.529 123.035 560.511C125.788 558.572 128.653 556.796 131.613 555.193C134.036 553.884 136.615 552.888 139.288 552.228C141.107 551.787 142.98 551.609 144.849 551.699C145.515 551.711 146.179 551.766 146.837 551.866Z"/><path fill="#8883A5" d="M172.697 560.553L171.654 560.33C170.655 560.123 169.642 559.997 168.623 559.954C167.014 559.868 165.401 559.999 163.827 560.344C162.841 560.553 161.874 560.842 160.935 561.207C159.862 561.514 158.92 562.164 158.251 563.059C157.956 563.588 157.841 564.199 157.923 564.799C158.006 565.4 158.282 565.957 158.71 566.386C159.623 567.366 160.772 568.094 162.047 568.502C164.872 569.415 167.903 569.478 170.764 568.683C172.323 568.31 173.849 567.807 175.324 567.179C176.893 566.609 178.358 565.786 179.662 564.743C180.323 564.205 180.86 563.528 181.234 562.762C181.609 561.995 181.812 561.156 181.831 560.302C181.772 558.528 181.07 556.835 179.857 555.541C178.66 554.218 177.12 553.254 175.408 552.757C173.745 552.29 172.011 552.129 170.291 552.284C167.03 552.657 163.832 553.462 160.782 554.678C155.545 556.571 150.476 558.899 145.628 561.639C142.361 563.486 139.196 565.508 136.146 567.694C135.061 568.474 134.241 569.087 133.685 569.504C133.129 569.922 132.809 570.145 132.809 570.145C132.809 570.145 133.935 569.184 136.076 567.597C139.113 565.378 142.269 563.329 145.53 561.458C150.37 558.682 155.441 556.33 160.684 554.428C163.756 553.199 166.978 552.385 170.264 552.005C172.02 551.852 173.79 552.012 175.491 552.479C177.243 552.976 178.828 553.938 180.079 555.263C181.341 556.61 182.068 558.372 182.123 560.219C182.102 561.113 181.888 561.992 181.494 562.795C181.1 563.598 180.537 564.305 179.843 564.868C178.517 565.931 177.029 566.772 175.435 567.36C173.943 567.98 172.404 568.483 170.834 568.864C167.919 569.657 164.837 569.584 161.964 568.655C160.655 568.226 159.478 567.469 158.543 566.455C158.107 565.955 157.819 565.343 157.709 564.687C157.612 564.054 157.745 563.407 158.085 562.864C158.777 561.937 159.754 561.262 160.865 560.943C161.815 560.586 162.791 560.302 163.785 560.093C165.372 559.774 166.993 559.657 168.609 559.745C169.635 559.804 170.654 559.953 171.654 560.191C172.405 560.441 172.697 560.553 172.697 560.553Z"/><path fill="#8883A5" d="M203.825 570.047C203.825 570.047 203.825 569.685 203.825 569.031C203.883 568.104 203.883 567.174 203.825 566.247C203.626 563.193 202.706 560.231 201.142 557.602C199.551 554.988 197.244 552.887 194.497 551.546C193.347 551.021 192.144 550.62 190.91 550.349C192.183 550.462 193.426 550.802 194.58 551.351C197.401 552.667 199.771 554.788 201.392 557.448C202.984 560.113 203.891 563.131 204.034 566.233C204.132 567.508 204.061 568.79 203.825 570.047Z"/><path fill="#8883A5" d="M244.339 569.866C242.367 569.597 240.416 569.192 238.5 568.655C236.411 568.092 234.354 567.414 232.341 566.623C229.889 565.623 227.498 564.479 225.181 563.198C220.991 560.824 217.083 557.985 213.53 554.734C212.14 553.481 211.111 552.423 210.416 551.657L209.609 550.78C209.429 550.585 209.345 550.474 209.345 550.474C209.345 550.474 209.456 550.557 209.651 550.752L210.499 551.588C211.208 552.325 212.293 553.356 213.655 554.581C219.203 559.577 225.572 563.575 232.48 566.4C234.476 567.202 236.514 567.899 238.583 568.488C240.349 568.989 241.809 569.337 242.754 569.546L243.922 569.783C244.064 569.793 244.204 569.821 244.339 569.866Z"/><path fill="#8883A5" d="M272.798 564.381L272.409 564.2C272.159 564.075 271.825 563.852 271.339 563.629C269.995 562.973 268.6 562.428 267.168 562.001C265.047 561.37 262.881 560.904 260.689 560.609C258.228 560.247 255.489 560.01 252.625 559.634C246.897 558.924 241.781 557.212 238.722 554.943C237.489 554.089 236.368 553.083 235.386 551.95C234.718 551.128 234.398 550.641 234.398 550.641C234.398 550.641 234.51 550.738 234.69 550.947C234.871 551.156 235.107 551.49 235.469 551.88C236.478 552.974 237.612 553.946 238.847 554.776C241.92 556.975 246.981 558.632 252.75 559.342C255.6 559.718 258.311 559.968 260.814 560.344C263.012 560.631 265.184 561.096 267.307 561.736C268.748 562.18 270.144 562.758 271.478 563.462C272.27 564.047 272.798 564.381 272.798 564.381Z"/></svg>